<?xml version="1.0" encoding="UTF-8"?>
<svg id="Layer_1" xmlns="http://www.w3.org/2000/svg" version="1.1" viewBox="0 0 256 174">
  <!-- Generator: Adobe Illustrator 29.0.1, SVG Export Plug-In . SVG Version: 2.1.0 Build 192)  -->
  <path d="M196.27,74.04c0-.95.75-1.75,1.7-1.77s1.86.12,2.36,1.14l14.86,29.74c.84,1.69,3.39,1.05,3.35-.84-.04-1.6-.08-2.99,0-3.42l-.02-24.61c0-1.05.91-1.87,1.96-1.76h0c.89.1,1.57.85,1.57,1.75l.17,40.42c0,.94-.73,1.72-1.67,1.77-1.03.06-2.03.02-2.64-.88l-14.6-28.84c-.84-1.66-3.34-1.06-3.34.8v27.11c0,.98-.79,1.77-1.77,1.77h-.18c-.98,0-1.77-.79-1.77-1.77v-40.63Z"/>
  <path d="M187.2,106.34c-1.85,13-21.47,14.92-25.28,1.37-1.27-4.52-1.04-16.55-.71-21.59,1.19-18.35,23.58-18.68,25.83-2.17.14,1.05-.7,1.98-1.76,1.98h0c-.93,0-1.7-.72-1.76-1.64-.64-10.07-16.9-11.2-18.18-.64-.43,3.56-.54,19.41.1,22.6.77,3.79,5.24,7.45,9.18,7.34,3.35-.09,8.86-4.46,8.86-7.66v-7.51c0-.98-.79-1.77-1.77-1.77h-5.95c-.98,0-1.77-.79-1.77-1.77v-.59c0-.98.79-1.77,1.77-1.77h9.56c.99,0,1.78.82,1.76,1.81-.08,3.92.61,8.43.1,12Z"/>
  <path d="M137.61,85.93h-.16c-.9,0-1.68-.68-1.75-1.58-.62-7.88-12.54-11.52-17.03-4.5-2.97,4.65-.59,10.18,4.41,11.87,3.6,1.22,9.08,2.32,12.14,4.76,6.25,4.99,5.46,14.79-1.33,18.8-8.42,4.97-19.26-.83-20.05-10.18-.09-1.01.75-1.86,1.77-1.86h.17c.91,0,1.66.69,1.75,1.59.46,4.51,4.86,8.56,9.3,8.73,7.52.3,12.31-9.36,5.84-14.13-6.11-4.51-14.61-1.85-18.11-10.75-3.09-7.87,3.04-16.82,11.42-16.82,6.44,0,12.79,5.65,13.39,12.13.1,1.04-.73,1.93-1.77,1.93Z"/>
  <path d="M102.98,72.32c.98,0,1.77.79,1.77,1.77v31.01c0,4.43-4.31,9.87-8.54,11.25-13.93,4.54-18.68-8.81-17.31-20.2,1.21-10.06,11.56-14.84,19.41-9.97,1.2.74,2.74-.07,2.74-1.47v-10.62c0-.98.79-1.77,1.77-1.77h.18ZM90.22,88.1c-7.66,1.07-8.35,10-7.73,16.17,1.23,12.25,17.32,12.14,18.54,0,.76-7.58-.95-17.55-10.81-16.17Z"/>
  <path d="M68.37,116.17l-.16-.02c-.72-.07-1.32-.58-1.52-1.27l-1.81-6.27c-.22-.76-.91-1.28-1.7-1.28l-13.94.04c-.8,0-1.5.54-1.7,1.32l-1.62,6.15c-.19.71-.8,1.23-1.53,1.31h-.11c-1.24.14-2.22-1.03-1.88-2.23l11.56-40.33c.2-.71.82-1.21,1.56-1.27s1.61-.14,2.29,0c.63.12,1.11.63,1.28,1.24l11.17,40.38c.33,1.2-.65,2.36-1.88,2.23ZM62.92,101.42l-4.9-17.92c-.47-1.74-2.94-1.74-3.41,0l-4.9,17.92c-.31,1.12.54,2.23,1.7,2.23h9.8c1.17,0,2.01-1.11,1.7-2.23Z"/>
  <path d="M150.8,116.44h-.59c-.98,0-1.77-.79-1.77-1.77v-40.67c0-.87.63-1.63,1.49-1.75.37-.05.76-.05,1.13,0,.86.13,1.5.88,1.5,1.75v40.67c0,.98-.79,1.77-1.77,1.77Z"/>
  <path d="M104.75,36.45c.08,2.1-.18,4.22-.52,6.28-2.48,14.82-14,27.25-29.07,29.48-1.32.2-4.83,1.12-4.62-.71,18.5-.15,33.38-16.86,32.98-35.05h1.23Z"/>
</svg>